{"title":"WWE Friday Night Smackdown 2013 10 25 HDTV x264-RatedGTS.mkv","uid":9101700,"size":881523305,"categoryP":"video","categoryS":"hd___tv_shows","magnet":"?xt=urn:btih:8c7fdc45bffe268af026ddad5174991d7aca122a&amp;dn=WWE+Friday+Night+Smackdown+2013+10+25+HDTV+x264-RatedGTS.mkv&amp;tr=udp%3A%2F%2Ftracker.openbittorrent.com%3A80&amp;tr=udp%3A%2F%2Fopen.demonii.com%3A1337&amp;tr=udp%3A%2F%2Ftracker.coppersurfer.tk%3A6969&amp;tr=udp%3A%2F%2Fexodus.desync.com%3A6969","seeders":1,"leechers":0,"uploader":"RDS31","files":1,"time":1382782379,"description":"INFO:-\nGeneral\nFormat : Matroska\nFormat version : Version 2\nFile size : 841 MiB\nDuration : 1h 23mn\nOverall bit rate : 1 410 Kbps\nWriting application : Lavf51.12.1\nWriting library : Lavf51.12.1\n\nVideo\nID : 1\nFormat : AVC\nFormat/Info : Advanced Video Codec\nFormat profile : &lt;a class=&quot;__cf_email__&quot; href=&quot;/cdn-cgi/l/email-protection&quot; data-cfemail=&quot;fcbe9d8f9990959299bcb0cfd2cc&quot;&gt;[email&amp;#160;protected]&lt;/a&gt;&lt;script cf-hash='f9e31' type=&quot;text/javascript&quot;&gt;\n/* &lt;![CDATA[ */!function(){try{var t=&quot;currentScript&quot;in document?document.currentScript:function(){for(var t=document.getElementsByTagName(&quot;script&quot;),e=t.length;e--;)if(t[e].getAttribute(&quot;cf-hash&quot;))return t[e]}();if(t&amp;&amp;t.previousSibling){var e,r,n,i,c=t.previousSibling,a=c.getAttribute(&quot;data-cfemail&quot;);if(a){for(e=&quot;&quot;,r=parseInt(a.substr(0,2),16),n=2;a.length-n;n+=2)i=parseInt(a.substr(n,2),16)^r,e+=String.fromCharCode(i);e=document.createTextNode(e),c.parentNode.replaceChild(e,c)}}}catch(u){}}();/* ]]&gt; */&lt;/script&gt;\nFormat settings, CABAC : No\nFormat settings, ReFrames : 1 frame\nFormat settings, GOP : M=1, N=12\nCodec ID : V_MPEG4/ISO/AVC\nDuration : 1h 23mn 26s\nBit rate : 1 222 Kbps\nWidth : 720 pixels\nHeight : 404 pixels\nDisplay aspect ratio : 16:9\nFrame rate mode : Constant\nFrame rate : 30.000 fps\nColor space : YUV\nChroma subsampling : 4:2:0\nBit depth : 8 bits\nScan type : Progressive\nBits/(Pixel*Frame) : 0.140\nStream size : 729 MiB (87%)\nDefault : Yes\nForced : No\n\nAudio\nID : 2\nFormat : AC-3\nFormat/Info : Audio Coding 3\nMode extension : CM (complete main)\nFormat settings, Endianness : Big\nCodec ID : A_AC3\nDuration : 1h 23mn 26s\nBit rate mode : Constant\nBit rate : 160 Kbps\nChannel(s) : 2 channels\nChannel positions : Front: L R\nSampling rate : 44.1 KHz\nBit depth : 16 bits\nCompression mode : Lossy\nStream size : 95.4 MiB (11%)\n","torrent":{"xt":"urn:btih:8c7fdc45bffe268af026ddad5174991d7aca122a","amp;dn":"WWE+Friday+Night+Smackdown+2013+10+25+HDTV+x264-RatedGTS.mkv","amp;tr":["udp%3A%2F%2Ftracker.openbittorrent.com%3A80","udp%3A%2F%2Fopen.demonii.com%3A1337","udp%3A%2F%2Ftracker.coppersurfer.tk%3A6969","udp%3A%2F%2Fexodus.desync.com%3A6969"],"infoHash":"8c7fdc45bffe268af026ddad5174991d7aca122a","infoHashBuffer":{"type":"Buffer","data":[140,127,220,69,191,254,38,138,240,38,221,173,81,116,153,29,122,202,18,42]},"announce":[],"urlList":[]}}